<mxfile host="app.diagrams.net" modified="2023-06-03T14:06:45.672Z" agent="Mozilla/5.0 (Windows NT 10.0; Win64; x64) AppleWebKit/537.36 (KHTML, like Gecko) Chrome/114.0.0.0 Safari/537.36" etag="qb1laNgGVYo4iwqQ8SWH" version="21.3.4" type="github">
  <diagram name="Σελίδα-1" id="zOCQZcjmYUrIdOuTZQAy">
    <mxGraphModel dx="1500" dy="830" grid="1" gridSize="10" guides="1" tooltips="1" connect="1" arrows="1" fold="1" page="1" pageScale="1" pageWidth="827" pageHeight="1169" math="0" shadow="0">
      <root>
        <mxCell id="0" />
        <mxCell id="1" parent="0" />
        <mxCell id="oJ1XokG1mtXctFdXL_2H-8" value="School" style="swimlane;childLayout=stackLayout;horizontal=1;startSize=50;horizontalStack=0;rounded=1;fontSize=14;fontStyle=0;strokeWidth=2;resizeParent=0;resizeLast=1;shadow=0;dashed=0;align=center;arcSize=4;whiteSpace=wrap;html=1;fillColor=default;strokeColor=#6c8ebf;" parent="1" vertex="1">
          <mxGeometry x="199" y="540" width="170" height="180" as="geometry">
            <mxRectangle x="220" y="140" width="80" height="50" as="alternateBounds" />
          </mxGeometry>
        </mxCell>
        <mxCell id="oJ1XokG1mtXctFdXL_2H-9" value="&lt;u&gt;&lt;b&gt;SchoolID&lt;/b&gt;&lt;br&gt;&lt;/u&gt;SchoolName&lt;br&gt;Address&lt;br&gt;Email&lt;br&gt;Phone Number&lt;br&gt;City&lt;br&gt;School Director&lt;br&gt;School Library Operator" style="align=left;strokeColor=none;fillColor=none;spacingLeft=4;fontSize=12;verticalAlign=top;resizable=0;rotatable=0;part=1;html=1;" parent="oJ1XokG1mtXctFdXL_2H-8" vertex="1">
          <mxGeometry y="50" width="170" height="130" as="geometry" />
        </mxCell>
        <mxCell id="oJ1XokG1mtXctFdXL_2H-10" value="Book" style="swimlane;childLayout=stackLayout;horizontal=1;startSize=50;horizontalStack=0;rounded=1;fontSize=14;fontStyle=0;strokeWidth=2;resizeParent=0;resizeLast=1;shadow=0;dashed=0;align=center;arcSize=4;whiteSpace=wrap;html=1;fillColor=default;strokeColor=#6c8ebf;" parent="1" vertex="1">
          <mxGeometry x="452" y="370" width="170" height="190" as="geometry">
            <mxRectangle x="220" y="140" width="80" height="50" as="alternateBounds" />
          </mxGeometry>
        </mxCell>
        <mxCell id="oJ1XokG1mtXctFdXL_2H-11" value="&lt;b&gt;&lt;u&gt;BookID&lt;/u&gt;&lt;br&gt;&lt;/b&gt;ISBN&lt;br&gt;Title&lt;br&gt;NumOfPages&lt;br&gt;Language&lt;br&gt;Inventory&lt;br&gt;Publisher&lt;br&gt;&lt;b&gt;&lt;u&gt;SchoolID (FK)&lt;/u&gt;&lt;/b&gt;" style="align=left;strokeColor=none;fillColor=none;spacingLeft=4;fontSize=12;verticalAlign=top;resizable=0;rotatable=0;part=1;html=1;" parent="oJ1XokG1mtXctFdXL_2H-10" vertex="1">
          <mxGeometry y="50" width="170" height="140" as="geometry" />
        </mxCell>
        <mxCell id="oJ1XokG1mtXctFdXL_2H-14" value="Keyword" style="swimlane;childLayout=stackLayout;horizontal=1;startSize=50;horizontalStack=0;rounded=1;fontSize=14;fontStyle=0;strokeWidth=2;resizeParent=0;resizeLast=1;shadow=0;dashed=0;align=center;arcSize=4;whiteSpace=wrap;html=1;fillColor=default;strokeColor=#6c8ebf;" parent="1" vertex="1">
          <mxGeometry x="457" y="250" width="160" height="90" as="geometry" />
        </mxCell>
        <mxCell id="oJ1XokG1mtXctFdXL_2H-15" value="&lt;span style=&quot;border-color: var(--border-color);&quot;&gt;&lt;span style=&quot;border-color: var(--border-color);&quot;&gt;&lt;b style=&quot;text-decoration-line: underline; font-weight: bold; border-color: var(--border-color);&quot;&gt;&lt;u style=&quot;border-color: var(--border-color);&quot;&gt;&lt;b style=&quot;border-color: var(--border-color);&quot;&gt;&lt;u style=&quot;border-color: var(--border-color);&quot;&gt;&lt;b&gt;&lt;u&gt;BookID&amp;nbsp;&lt;/u&gt;&lt;/b&gt;(FK)&lt;/u&gt;&lt;/b&gt;&lt;br style=&quot;border-color: var(--border-color); font-weight: 400;&quot;&gt;&lt;/u&gt;&lt;/b&gt;KeywordName&lt;br style=&quot;border-color: var(--border-color);&quot;&gt;&lt;/span&gt;&lt;/span&gt;&lt;b&gt;&lt;u&gt;&lt;br&gt;&lt;/u&gt;&lt;/b&gt;" style="align=left;strokeColor=none;fillColor=none;spacingLeft=4;fontSize=12;verticalAlign=top;resizable=0;rotatable=0;part=1;html=1;" parent="oJ1XokG1mtXctFdXL_2H-14" vertex="1">
          <mxGeometry y="50" width="160" height="40" as="geometry" />
        </mxCell>
        <mxCell id="oJ1XokG1mtXctFdXL_2H-18" value="Category" style="swimlane;childLayout=stackLayout;horizontal=1;startSize=50;horizontalStack=0;rounded=1;fontSize=14;fontStyle=0;strokeWidth=2;resizeParent=0;resizeLast=1;shadow=0;dashed=0;align=center;arcSize=4;whiteSpace=wrap;html=1;fillColor=default;strokeColor=#6c8ebf;" parent="1" vertex="1">
          <mxGeometry x="159" y="360" width="160" height="90" as="geometry" />
        </mxCell>
        <mxCell id="oJ1XokG1mtXctFdXL_2H-19" value="&lt;span style=&quot;border-color: var(--border-color);&quot;&gt;&lt;span style=&quot;border-color: var(--border-color);&quot;&gt;&lt;b style=&quot;text-decoration-line: underline; font-weight: bold; border-color: var(--border-color);&quot;&gt;&lt;u style=&quot;border-color: var(--border-color);&quot;&gt;&lt;b&gt;&lt;u&gt;BookID&amp;nbsp;&lt;/u&gt;&lt;/b&gt;(FK)&lt;/u&gt;&lt;/b&gt;&lt;br style=&quot;border-color: var(--border-color); font-weight: 400;&quot;&gt;CategoryName&lt;br style=&quot;border-color: var(--border-color);&quot;&gt;&lt;/span&gt;&lt;/span&gt;&lt;b&gt;&lt;u&gt;&lt;br&gt;&lt;/u&gt;&lt;/b&gt;" style="align=left;strokeColor=none;fillColor=none;spacingLeft=4;fontSize=12;verticalAlign=top;resizable=0;rotatable=0;part=1;html=1;" parent="oJ1XokG1mtXctFdXL_2H-18" vertex="1">
          <mxGeometry y="50" width="160" height="40" as="geometry" />
        </mxCell>
        <mxCell id="oJ1XokG1mtXctFdXL_2H-21" value="Author" style="swimlane;childLayout=stackLayout;horizontal=1;startSize=50;horizontalStack=0;rounded=1;fontSize=14;fontStyle=0;strokeWidth=2;resizeParent=0;resizeLast=1;shadow=0;dashed=0;align=center;arcSize=4;whiteSpace=wrap;html=1;fillColor=default;strokeColor=#6c8ebf;" parent="1" vertex="1">
          <mxGeometry x="159" y="160" width="160" height="90" as="geometry" />
        </mxCell>
        <mxCell id="oJ1XokG1mtXctFdXL_2H-22" value="&lt;b&gt;&lt;u&gt;BookID (FK)&lt;/u&gt;&lt;/b&gt;&lt;br&gt;AuthorName" style="align=left;strokeColor=none;fillColor=none;spacingLeft=4;fontSize=12;verticalAlign=top;resizable=0;rotatable=0;part=1;html=1;" parent="oJ1XokG1mtXctFdXL_2H-21" vertex="1">
          <mxGeometry y="50" width="160" height="40" as="geometry" />
        </mxCell>
        <mxCell id="oJ1XokG1mtXctFdXL_2H-24" value="User" style="swimlane;childLayout=stackLayout;horizontal=1;startSize=50;horizontalStack=0;rounded=1;fontSize=14;fontStyle=0;strokeWidth=2;resizeParent=0;resizeLast=1;shadow=0;dashed=0;align=center;arcSize=4;whiteSpace=wrap;html=1;fillColor=default;strokeColor=#6c8ebf;" parent="1" vertex="1">
          <mxGeometry x="199" y="780" width="170" height="180" as="geometry">
            <mxRectangle x="220" y="140" width="80" height="50" as="alternateBounds" />
          </mxGeometry>
        </mxCell>
        <mxCell id="oJ1XokG1mtXctFdXL_2H-25" value="&lt;u&gt;&lt;b&gt;UserID&lt;/b&gt;&lt;br&gt;&lt;/u&gt;Username&lt;br&gt;FirstName&lt;br&gt;LastName&lt;br&gt;HashPassword&lt;br&gt;BorrowerCard&lt;br&gt;&lt;b&gt;&lt;u&gt;School_ID (FK)&lt;/u&gt;&lt;/b&gt;&lt;br&gt;Role" style="align=left;strokeColor=none;fillColor=none;spacingLeft=4;fontSize=12;verticalAlign=top;resizable=0;rotatable=0;part=1;html=1;" parent="oJ1XokG1mtXctFdXL_2H-24" vertex="1">
          <mxGeometry y="50" width="170" height="130" as="geometry" />
        </mxCell>
        <mxCell id="oJ1XokG1mtXctFdXL_2H-49" value="Review" style="swimlane;childLayout=stackLayout;horizontal=1;startSize=50;horizontalStack=0;rounded=1;fontSize=14;fontStyle=0;strokeWidth=2;resizeParent=0;resizeLast=1;shadow=0;dashed=0;align=center;arcSize=4;whiteSpace=wrap;html=1;fillColor=default;strokeColor=#6c8ebf;" parent="1" vertex="1">
          <mxGeometry x="452" y="800" width="160" height="160" as="geometry" />
        </mxCell>
        <mxCell id="oJ1XokG1mtXctFdXL_2H-50" value="&lt;b&gt;&lt;u&gt;ReviewID&lt;/u&gt;&lt;/b&gt;&lt;b&gt;&lt;u&gt;&lt;br&gt;UserID (FK)&lt;br&gt;SchoolID (FK)&lt;br&gt;BookID (FK)&lt;/u&gt;&lt;/b&gt;&lt;br&gt;ApprovalStatus&lt;br&gt;Comment&lt;br&gt;Rating" style="align=left;strokeColor=none;fillColor=none;spacingLeft=4;fontSize=12;verticalAlign=top;resizable=0;rotatable=0;part=1;html=1;" parent="oJ1XokG1mtXctFdXL_2H-49" vertex="1">
          <mxGeometry y="50" width="160" height="110" as="geometry" />
        </mxCell>
        <mxCell id="oJ1XokG1mtXctFdXL_2H-67" value="Reservation" style="swimlane;childLayout=stackLayout;horizontal=1;startSize=50;horizontalStack=0;rounded=1;fontSize=14;fontStyle=0;strokeWidth=2;resizeParent=0;resizeLast=1;shadow=0;dashed=0;align=center;arcSize=4;whiteSpace=wrap;html=1;fillColor=default;strokeColor=#6c8ebf;" parent="1" vertex="1">
          <mxGeometry x="452" y="620" width="160" height="160" as="geometry" />
        </mxCell>
        <mxCell id="oJ1XokG1mtXctFdXL_2H-68" value="&lt;b style=&quot;text-decoration-line: underline;&quot;&gt;ReservationID&lt;br&gt;&lt;/b&gt;&lt;u&gt;&lt;b&gt;SchoolID (FK)&lt;/b&gt;&lt;/u&gt;&lt;u&gt;&lt;b&gt;&lt;br&gt;UserID (FK)&lt;/b&gt;&lt;/u&gt;&lt;br&gt;&lt;b style=&quot;text-decoration-line: underline;&quot;&gt;BookID (FK)&lt;/b&gt;&lt;br&gt;ReservationDate&lt;br&gt;ExpirationDate&lt;br&gt;Active" style="align=left;strokeColor=none;fillColor=none;spacingLeft=4;fontSize=12;verticalAlign=top;resizable=0;rotatable=0;part=1;html=1;" parent="oJ1XokG1mtXctFdXL_2H-67" vertex="1">
          <mxGeometry y="50" width="160" height="110" as="geometry" />
        </mxCell>
        <mxCell id="JUQ4CYv2heBlnvrro8Wb-22" style="edgeStyle=orthogonalEdgeStyle;rounded=0;orthogonalLoop=1;jettySize=auto;html=1;endArrow=classic;endFill=1;entryX=1.015;entryY=0.072;entryDx=0;entryDy=0;entryPerimeter=0;startArrow=none;startFill=0;exitX=1;exitY=0.5;exitDx=0;exitDy=0;" parent="1" source="oJ1XokG1mtXctFdXL_2H-50" target="oJ1XokG1mtXctFdXL_2H-11" edge="1">
          <mxGeometry relative="1" as="geometry">
            <mxPoint x="639" y="460" as="targetPoint" />
            <mxPoint x="619" y="890" as="sourcePoint" />
            <Array as="points">
              <mxPoint x="669" y="905" />
              <mxPoint x="669" y="431" />
            </Array>
          </mxGeometry>
        </mxCell>
        <mxCell id="JUQ4CYv2heBlnvrro8Wb-35" value="" style="edgeStyle=elbowEdgeStyle;orthogonalLoop=1;jettySize=auto;html=1;rounded=0;exitX=1.01;exitY=0.148;exitDx=0;exitDy=0;exitPerimeter=0;entryX=-0.009;entryY=0.095;entryDx=0;entryDy=0;entryPerimeter=0;" parent="1" source="oJ1XokG1mtXctFdXL_2H-22" target="oJ1XokG1mtXctFdXL_2H-11" edge="1">
          <mxGeometry width="100" relative="1" as="geometry">
            <mxPoint x="622" y="310" as="sourcePoint" />
            <mxPoint x="452" y="430" as="targetPoint" />
            <Array as="points">
              <mxPoint x="419" y="450" />
              <mxPoint x="419" y="290" />
              <mxPoint x="422" y="350" />
            </Array>
          </mxGeometry>
        </mxCell>
        <mxCell id="JUQ4CYv2heBlnvrro8Wb-50" style="rounded=0;orthogonalLoop=1;jettySize=auto;html=1;exitX=1;exitY=0.25;exitDx=0;exitDy=0;endArrow=none;endFill=0;" parent="1" edge="1">
          <mxGeometry relative="1" as="geometry">
            <mxPoint x="419" y="419.5999999999999" as="targetPoint" />
            <mxPoint x="319" y="420" as="sourcePoint" />
          </mxGeometry>
        </mxCell>
        <mxCell id="fjZzuGaomFzjhE8aprJj-2" value="Summary" style="swimlane;childLayout=stackLayout;horizontal=1;startSize=50;horizontalStack=0;rounded=1;fontSize=14;fontStyle=0;strokeWidth=2;resizeParent=0;resizeLast=1;shadow=0;dashed=0;align=center;arcSize=4;whiteSpace=wrap;html=1;fillColor=default;strokeColor=#6c8ebf;" parent="1" vertex="1">
          <mxGeometry x="159" y="260" width="160" height="90" as="geometry" />
        </mxCell>
        <mxCell id="fjZzuGaomFzjhE8aprJj-3" value="&lt;b style=&quot;border-color: var(--border-color);&quot;&gt;&lt;u style=&quot;border-color: var(--border-color);&quot;&gt;&lt;b style=&quot;border-color: var(--border-color);&quot;&gt;&lt;u style=&quot;border-color: var(--border-color);&quot;&gt;&lt;b&gt;&lt;u&gt;BookID&amp;nbsp;&lt;/u&gt;&lt;/b&gt;(FK)&lt;/u&gt;&lt;/b&gt;&lt;br style=&quot;border-color: var(--border-color); font-weight: 400;&quot;&gt;&lt;/u&gt;&lt;/b&gt;Summary" style="align=left;strokeColor=none;fillColor=none;spacingLeft=4;fontSize=12;verticalAlign=top;resizable=0;rotatable=0;part=1;html=1;" parent="fjZzuGaomFzjhE8aprJj-2" vertex="1">
          <mxGeometry y="50" width="160" height="40" as="geometry" />
        </mxCell>
        <mxCell id="fjZzuGaomFzjhE8aprJj-7" style="edgeStyle=orthogonalEdgeStyle;rounded=0;orthogonalLoop=1;jettySize=auto;html=1;exitX=1;exitY=0.25;exitDx=0;exitDy=0;endArrow=none;endFill=0;" parent="1" source="fjZzuGaomFzjhE8aprJj-3" edge="1">
          <mxGeometry relative="1" as="geometry">
            <mxPoint x="419" y="320" as="targetPoint" />
          </mxGeometry>
        </mxCell>
        <mxCell id="fjZzuGaomFzjhE8aprJj-8" style="edgeStyle=orthogonalEdgeStyle;rounded=0;orthogonalLoop=1;jettySize=auto;html=1;exitX=0;exitY=0.25;exitDx=0;exitDy=0;endArrow=none;endFill=0;" parent="1" source="oJ1XokG1mtXctFdXL_2H-15" edge="1">
          <mxGeometry relative="1" as="geometry">
            <mxPoint x="419" y="310" as="targetPoint" />
          </mxGeometry>
        </mxCell>
        <mxCell id="lPLYcv-aOFJ9D-rJAz7b-4" value="Image" style="swimlane;childLayout=stackLayout;horizontal=1;startSize=50;horizontalStack=0;rounded=1;fontSize=14;fontStyle=0;strokeWidth=2;resizeParent=0;resizeLast=1;shadow=0;dashed=0;align=center;arcSize=4;whiteSpace=wrap;html=1;fillColor=default;strokeColor=#6c8ebf;" parent="1" vertex="1">
          <mxGeometry x="457" y="150" width="160" height="90" as="geometry" />
        </mxCell>
        <mxCell id="lPLYcv-aOFJ9D-rJAz7b-5" value="&lt;span style=&quot;border-color: var(--border-color);&quot;&gt;&lt;span style=&quot;border-color: var(--border-color);&quot;&gt;&lt;b style=&quot;text-decoration-line: underline; font-weight: bold; border-color: var(--border-color);&quot;&gt;&lt;u style=&quot;border-color: var(--border-color);&quot;&gt;&lt;b style=&quot;border-color: var(--border-color);&quot;&gt;&lt;u style=&quot;border-color: var(--border-color);&quot;&gt;&lt;b&gt;&lt;u&gt;BookID&amp;nbsp;&lt;/u&gt;&lt;/b&gt;(FK)&lt;/u&gt;&lt;/b&gt;&lt;br style=&quot;border-color: var(--border-color); font-weight: 400;&quot;&gt;&lt;/u&gt;&lt;/b&gt;&lt;/span&gt;&lt;/span&gt;ImageLink" style="align=left;strokeColor=none;fillColor=none;spacingLeft=4;fontSize=12;verticalAlign=top;resizable=0;rotatable=0;part=1;html=1;" parent="lPLYcv-aOFJ9D-rJAz7b-4" vertex="1">
          <mxGeometry y="50" width="160" height="40" as="geometry" />
        </mxCell>
        <mxCell id="lPLYcv-aOFJ9D-rJAz7b-8" style="edgeStyle=orthogonalEdgeStyle;rounded=0;orthogonalLoop=1;jettySize=auto;html=1;exitX=0;exitY=0.25;exitDx=0;exitDy=0;endArrow=none;endFill=0;" parent="1" source="lPLYcv-aOFJ9D-rJAz7b-5" edge="1">
          <mxGeometry relative="1" as="geometry">
            <mxPoint x="419" y="220" as="targetPoint" />
          </mxGeometry>
        </mxCell>
        <mxCell id="lPLYcv-aOFJ9D-rJAz7b-11" style="edgeStyle=orthogonalEdgeStyle;rounded=0;orthogonalLoop=1;jettySize=auto;html=1;endArrow=none;endFill=0;" parent="1" source="oJ1XokG1mtXctFdXL_2H-68" edge="1">
          <mxGeometry relative="1" as="geometry">
            <mxPoint x="669" y="710" as="targetPoint" />
            <Array as="points">
              <mxPoint x="669" y="730" />
            </Array>
          </mxGeometry>
        </mxCell>
        <mxCell id="lPLYcv-aOFJ9D-rJAz7b-14" style="edgeStyle=orthogonalEdgeStyle;rounded=0;orthogonalLoop=1;jettySize=auto;html=1;endArrow=none;endFill=0;" parent="1" source="oJ1XokG1mtXctFdXL_2H-68" target="oJ1XokG1mtXctFdXL_2H-9" edge="1">
          <mxGeometry relative="1" as="geometry">
            <mxPoint x="409" y="610" as="targetPoint" />
            <Array as="points">
              <mxPoint x="419" y="700" />
              <mxPoint x="419" y="600" />
            </Array>
          </mxGeometry>
        </mxCell>
        <mxCell id="lPLYcv-aOFJ9D-rJAz7b-15" style="edgeStyle=orthogonalEdgeStyle;rounded=0;orthogonalLoop=1;jettySize=auto;html=1;" parent="1" source="oJ1XokG1mtXctFdXL_2H-11" target="oJ1XokG1mtXctFdXL_2H-9" edge="1">
          <mxGeometry relative="1" as="geometry">
            <Array as="points">
              <mxPoint x="419" y="540" />
              <mxPoint x="419" y="600" />
            </Array>
          </mxGeometry>
        </mxCell>
        <mxCell id="lPLYcv-aOFJ9D-rJAz7b-16" style="edgeStyle=orthogonalEdgeStyle;rounded=0;orthogonalLoop=1;jettySize=auto;html=1;" parent="1" source="oJ1XokG1mtXctFdXL_2H-68" target="oJ1XokG1mtXctFdXL_2H-24" edge="1">
          <mxGeometry relative="1" as="geometry">
            <Array as="points">
              <mxPoint x="411" y="710" />
              <mxPoint x="411" y="840" />
            </Array>
          </mxGeometry>
        </mxCell>
        <mxCell id="lPLYcv-aOFJ9D-rJAz7b-17" style="edgeStyle=orthogonalEdgeStyle;rounded=0;orthogonalLoop=1;jettySize=auto;html=1;" parent="1" source="oJ1XokG1mtXctFdXL_2H-25" target="oJ1XokG1mtXctFdXL_2H-8" edge="1">
          <mxGeometry relative="1" as="geometry">
            <Array as="points">
              <mxPoint x="169" y="930" />
              <mxPoint x="169" y="600" />
            </Array>
          </mxGeometry>
        </mxCell>
        <mxCell id="lPLYcv-aOFJ9D-rJAz7b-18" style="edgeStyle=orthogonalEdgeStyle;rounded=0;orthogonalLoop=1;jettySize=auto;html=1;endArrow=none;endFill=0;" parent="1" source="oJ1XokG1mtXctFdXL_2H-50" target="oJ1XokG1mtXctFdXL_2H-24" edge="1">
          <mxGeometry relative="1" as="geometry">
            <Array as="points">
              <mxPoint x="411" y="880" />
              <mxPoint x="411" y="840" />
            </Array>
          </mxGeometry>
        </mxCell>
        <mxCell id="lPLYcv-aOFJ9D-rJAz7b-19" style="edgeStyle=orthogonalEdgeStyle;rounded=0;orthogonalLoop=1;jettySize=auto;html=1;endArrow=none;endFill=0;" parent="1" source="oJ1XokG1mtXctFdXL_2H-50" target="oJ1XokG1mtXctFdXL_2H-9" edge="1">
          <mxGeometry relative="1" as="geometry">
            <Array as="points">
              <mxPoint x="419" y="890" />
              <mxPoint x="419" y="980" />
              <mxPoint x="169" y="980" />
              <mxPoint x="169" y="600" />
            </Array>
          </mxGeometry>
        </mxCell>
      </root>
    </mxGraphModel>
  </diagram>
</mxfile>
